<?xml version="1.0" encoding="iso-8859-1"?>
<!-- Generator: Adobe Illustrator 19.0.0, SVG Export Plug-In . SVG Version: 6.00 Build 0)  -->
<svg version="1.1" id="Layer_1" xmlns="http://www.w3.org/2000/svg" xmlns:xlink="http://www.w3.org/1999/xlink" x="0px" y="0px"
	 viewBox="0 0 439.433 439.433" style="enable-background:new 0 0 439.433 439.433;" xml:space="preserve">
<g>
	<g>
		<g>
			<path d="M436.361,133.652L302.701,0l-42.509,42.509l-21.249-21.247L39.168,221.027l15.515,15.515L3.072,288.147l117.34,117.34
				h55.593l23.81-23.816l15.515,15.514l199.776-199.772l-21.256-21.255L436.361,133.652z M271.053,53.367l31.648-31.648
				l111.93,111.937l-31.643,31.643l-85.571-85.566L271.053,53.367z M169.639,390.127h-42.865L24.801,288.147l40.743-40.743
				l123.408,123.405L169.639,390.127z M215.33,375.467L60.894,221.027l178.05-178.046L393.38,197.414L215.33,375.467z"/>
			
				<rect x="122.638" y="133.145" transform="matrix(-0.7071 -0.7071 0.7071 -0.7071 92.8962 404.959)" width="15.36" height="100.191"/>
			<rect x="78.159" y="424.073" width="238.913" height="15.36"/>
		</g>
	</g>
</g>
<g>
</g>
<g>
</g>
<g>
</g>
<g>
</g>
<g>
</g>
<g>
</g>
<g>
</g>
<g>
</g>
<g>
</g>
<g>
</g>
<g>
</g>
<g>
</g>
<g>
</g>
<g>
</g>
<g>
</g>
</svg>
